<svg xmlns="http://www.w3.org/2000/svg" id="svg1117" version="1.1" viewBox="0 0 34.012 27.378" class="mx-auto mb-6 h-32 w-auto"><g id="layer1" transform="translate(-236.994 -198.734)"><g id="g153" transform="matrix(.35278 0 0 -.35278 245.93 208.629)"><path id="path155" d="M0 0a3.534 3.534 0 0 1-3.531-3.53v-24.721A3.534 3.534 0 0 1 0-31.781h45.562a3.534 3.534 0 0 1 3.531 3.53V-3.53A3.534 3.534 0 0 1 45.562 0Zm45.562-33.781H0a5.537 5.537 0 0 0-5.531 5.53V-3.53A5.537 5.537 0 0 0 0 2h45.562a5.537 5.537 0 0 0 5.531-5.53v-24.721a5.537 5.537 0 0 0-5.531-5.53" style="fill:#3167ae;fill-opacity:1;fill-rule:nonzero;stroke:none"></path></g><g id="g157" transform="matrix(.35278 0 0 -.35278 245.93 221.826)"><path id="path159" d="M0 0a3.535 3.535 0 0 1-3.531-3.531v-3.086A3.535 3.535 0 0 1 0-10.147h45.562a3.535 3.535 0 0 1 3.531 3.53v3.086A3.535 3.535 0 0 1 45.562 0Zm45.562-12.147H0a5.537 5.537 0 0 0-5.531 5.53v3.086A5.537 5.537 0 0 0 0 2h45.562a5.537 5.537 0 0 0 5.531-5.531v-3.086a5.537 5.537 0 0 0-5.531-5.53" style="fill:#3167ae;fill-opacity:1;fill-rule:nonzero;stroke:none"></path></g><g id="g161" transform="matrix(.35278 0 0 -.35278 251.354 202.464)"><path id="path163" d="M0 0h2.842a1 1 0 0 0 .975-1.221 1 1 0 0 1-.029-.22v-7.798c0-.533.434-.967.967-.967h4.433c.533 0 .966.434.966.967v7.798a1 1 0 0 1-.027.214A1.002 1.002 0 0 0 11.101 0h2.842L6.972 8.062Zm9.188-12.206H4.755a2.97 2.97 0 0 0-2.967 2.967V-2h-3.975c-.391 0-.747.229-.91.584-.162.356-.102.774.154 1.07l9.158 10.591c.381.438 1.133.438 1.514 0L16.887-.346A1 1 0 0 0 16.13-2h-3.976v-7.239a2.97 2.97 0 0 0-2.966-2.967" style="fill:#66abde;fill-opacity:1;fill-rule:nonzero;stroke:none"></path></g><g id="g165" transform="matrix(.35278 0 0 -.35278 237.886 214.102)"><path id="path167" d="m0 0 4.64-4.013v1.218a1 1 0 0 0 1.228.974l5.349-.011c.182 0 .331.149.331.332v3a.33.33 0 0 1-.331.332H5.939a1.07 1.07 0 0 0-.885.185c-.239.19-.414.473-.414.778v1.218zm5.64-7.199a1 1 0 0 0-.654.243l-7.169 6.2a1 1 0 0 0 0 1.512l7.169 6.2a.999.999 0 0 0 1.654-.757V3.832h4.577A2.334 2.334 0 0 0 13.548 1.5v-3a2.334 2.334 0 0 0-2.331-2.332H6.64v-2.367a1 1 0 0 0-1-1" style="fill:#66abde;fill-opacity:1;fill-rule:nonzero;stroke:none"></path></g><g id="g169" transform="matrix(.35278 0 0 -.35278 268.103 214.739)"><path id="path171" d="M0 0c.231 0 .469-.072.646-.212.238-.19.414-.473.414-.778v-1.218l4.639 4.013L1.06 5.817V4.6a1.003 1.003 0 0 0-1.227-.975l-5.351.011a.33.33 0 0 1-.331-.331v-3c0-.183.149-.332.331-.332h5.279Q-.122 0 0 0m.06-5.395a1 1 0 0 0-1 1v2.368h-4.578A2.334 2.334 0 0 0-7.849.305v3a2.334 2.334 0 0 0 2.331 2.331H-.94v2.368a1 1 0 0 0 1.654.756l7.168-6.199a1 1 0 0 0 0-1.513L.714-5.151a1 1 0 0 0-.654-.244" style="fill:#66abde;fill-opacity:1;fill-rule:nonzero;stroke:none"></path></g><g id="g173" transform="matrix(.35278 0 0 -.35278 247.255 224.135)"><path id="path175" d="M0 0h-2.643c-.594 0-1.076.482-1.076 1.076v2.138c0 .595.482 1.076 1.076 1.076H0c.594 0 1.076-.481 1.076-1.076V1.076C1.076.482.594 0 0 0" style="fill:#66abde;fill-opacity:1;fill-rule:nonzero;stroke:none"></path></g><g id="g177" transform="matrix(.35278 0 0 -.35278 249.32 224.135)"><path id="path179" d="M0 0h-2.643c-.594 0-1.076.482-1.076 1.076v2.138c0 .595.482 1.076 1.076 1.076H0c.594 0 1.076-.481 1.076-1.076V1.076C1.076.482.594 0 0 0" style="fill:#66abde;fill-opacity:1;fill-rule:nonzero;stroke:none"></path></g><g id="g181" transform="matrix(.35278 0 0 -.35278 251.373 224.135)"><path id="path183" d="M0 0h-2.644c-.593 0-1.075.482-1.075 1.076v2.138c0 .595.482 1.076 1.075 1.076H0c.594 0 1.076-.481 1.076-1.076V1.076C1.076.482.594 0 0 0" style="fill:#66abde;fill-opacity:1;fill-rule:nonzero;stroke:none"></path></g><g id="g185" transform="matrix(.35278 0 0 -.35278 251.403 210.405)"><path id="path187" d="M0 0h-13.718a1.16 1.16 0 0 0-1.16 1.16v.472c0 .64.519 1.16 1.16 1.16H0c.641 0 1.16-.52 1.16-1.16V1.16A1.16 1.16 0 0 0 0 0" style="fill:#66abde;fill-opacity:1;fill-rule:evenodd;stroke:none"></path></g><g id="g189" transform="matrix(.35278 0 0 -.35278 247.76 212.123)"><path id="path191" d="M0 0h-3.393a1.16 1.16 0 0 0-1.16 1.16v.472c0 .64.519 1.16 1.16 1.16H0c.64 0 1.159-.52 1.159-1.16V1.16A1.16 1.16 0 0 0 0 0" style="fill:#3167ae;fill-opacity:1;fill-rule:evenodd;stroke:none"></path></g><g id="g193" transform="matrix(.35278 0 0 -.35278 253.712 212.123)"><path id="path195" d="M0 0h-13.422a1.16 1.16 0 0 0-1.16 1.16v.472c0 .64.519 1.16 1.16 1.16H0a1.16 1.16 0 0 0 1.159-1.16V1.16C1.159.519.641 0 0 0" style="fill:#66abde;fill-opacity:1;fill-rule:evenodd;stroke:none"></path></g><g id="g197" transform="matrix(.35278 0 0 -.35278 261.308 212.123)"><path id="path199" d="M0 0h-18.085a1.16 1.16 0 0 0-1.16 1.16v.472c0 .64.519 1.16 1.16 1.16H0c.64 0 1.159-.52 1.159-1.16V1.16A1.16 1.16 0 0 0 0 0" style="fill:#3167ae;fill-opacity:1;fill-rule:evenodd;stroke:none"></path></g><g id="g201" transform="matrix(.35278 0 0 -.35278 247.76 213.9)"><path id="path203" d="M0 0h-3.393a1.16 1.16 0 0 0-1.16 1.16v.472c0 .64.519 1.16 1.16 1.16H0c.64 0 1.159-.52 1.159-1.16V1.16A1.16 1.16 0 0 0 0 0" style="fill:#3167ae;fill-opacity:1;fill-rule:evenodd;stroke:none"></path></g><g id="g205" transform="matrix(.35278 0 0 -.35278 251.767 213.9)"><path id="path207" d="M0 0h-7.908a1.16 1.16 0 0 0-1.159 1.16v.472c0 .64.519 1.16 1.159 1.16H0c.64 0 1.16-.52 1.16-1.16V1.16C1.16.519.64 0 0 0" style="fill:#66abde;fill-opacity:1;fill-rule:evenodd;stroke:none"></path></g><g id="g209" transform="matrix(.35278 0 0 -.35278 247.76 215.65)"><path id="path211" d="M0 0h-3.393c-.641 0-1.16.52-1.16 1.16v.472c0 .641.519 1.16 1.16 1.16H0a1.16 1.16 0 0 0 1.159-1.16V1.16C1.159.52.64 0 0 0" style="fill:#3167ae;fill-opacity:1;fill-rule:evenodd;stroke:none"></path></g><g id="g213" transform="matrix(.35278 0 0 -.35278 253.22 215.65)"><path id="path215" d="M0 0h-12.025c-.641 0-1.16.52-1.16 1.16v.472c0 .641.519 1.16 1.16 1.16H0a1.16 1.16 0 0 0 1.16-1.16V1.16C1.16.52.641 0 0 0" style="fill:#66abde;fill-opacity:1;fill-rule:evenodd;stroke:none"></path></g><g id="g217" transform="matrix(.35278 0 0 -.35278 247.76 217.442)"><path id="path219" d="M0 0h-3.393a1.16 1.16 0 0 0-1.16 1.159v.473c0 .64.519 1.16 1.16 1.16H0c.64 0 1.159-.52 1.159-1.16v-.473A1.16 1.16 0 0 0 0 0" style="fill:#3167ae;fill-opacity:1;fill-rule:evenodd;stroke:none"></path></g><g id="g221" transform="matrix(.35278 0 0 -.35278 246.73 219.045)"><path id="path223" d="M0 0h-.473c-.64 0-1.159.52-1.159 1.16v.472c0 .641.519 1.16 1.159 1.16H0a1.16 1.16 0 0 0 1.159-1.16V1.16C1.159.52.64 0 0 0" style="fill:#66abde;fill-opacity:1;fill-rule:evenodd;stroke:none"></path></g><g id="g225" transform="matrix(.35278 0 0 -.35278 256.98 217.442)"><path id="path227" d="M0 0h-22.687a1.16 1.16 0 0 0-1.16 1.159v.473c0 .64.519 1.16 1.16 1.16H0c.641 0 1.16-.52 1.16-1.16v-.473A1.16 1.16 0 0 0 0 0" style="fill:#66abde;fill-opacity:1;fill-rule:evenodd;stroke:none"></path></g></g></svg>