<svg xmlns="http://www.w3.org/2000/svg" id="svg1470" version="1.1" viewBox="0 0 28.101 27.723" class="mx-auto mb-6 h-32 w-auto"><defs id="defs1464"><clipPath id="clipPath81" clipPathUnits="userSpaceOnUse"><path id="path79" d="M0 313.233h500V0H0Z"></path></clipPath><clipPath id="clipPath93" clipPathUnits="userSpaceOnUse"><path id="path91" d="m357.032 172.142 3.262-5.676-4.596-7.902 1.404-2.423h2.742l3.226 5.553 3.203-5.584 5.514.053-11.998 20.776z"></path></clipPath></defs><g id="layer1" transform="translate(-462.955 -204.609)"><g id="g75" transform="matrix(.35278 0 0 -.35278 343.66 278.23)"><g id="g77" clip-path="url(#clipPath81)"><g id="g83" transform="translate(351.512 206.462)"><path id="path85" d="M0 0c-6.134 0-11.125-4.991-11.125-11.125v-35.742c0-6.134 4.991-11.124 11.125-11.124h35.741c6.134 0 11.125 4.99 11.125 11.124v35.742C46.866-4.991 41.875 0 35.741 0Zm35.741-60.216H0c-7.361 0-13.35 5.988-13.35 13.349v35.742c0 7.361 5.989 13.35 13.35 13.35h35.741c7.362 0 13.35-5.989 13.35-13.35v-35.742c0-7.361-5.988-13.349-13.35-13.349" style="fill:#66abde;fill-opacity:1;fill-rule:nonzero;stroke:none"></path></g></g></g><g id="g87" transform="matrix(.35278 0 0 -.35278 343.66 278.23)"><g id="g89" clip-path="url(#clipPath93)"><path id="path95" d="M355.698 176.939h16.089v-20.828h-16.089z" style="fill:#4c88c7;fill-opacity:1;fill-rule:nonzero;stroke:none"></path></g></g><g id="g105" transform="matrix(.35278 0 0 -.35278 472.113 212.79)"><path id="path107" d="m0 0-12.001-20.78-2.801 4.748 3.234 5.563-6.423.017-1.369 2.373 1.397 2.427 9.142-.028 3.284 5.664z" style="fill:#66abde;fill-opacity:1;fill-rule:evenodd;stroke:none"></path></g><g id="g109" transform="matrix(.35278 0 0 -.35278 472.437 218.65)"><path id="path111" d="M0 0h23.996l-2.712-4.8-6.435.018 3.195-5.57-1.37-2.372h-2.801L9.33-4.792l-6.547.014Z" style="fill:#66abde;fill-opacity:1;fill-rule:evenodd;stroke:none"></path></g><g id="g113" transform="matrix(.35278 0 0 -.35278 477.364 215.437)"><path id="path115" d="m0 0-11.998 20.776 5.514.053 3.202-5.584 3.225 5.553h2.74l1.403-2.424-4.596-7.902 3.262-5.677Z" style="fill:#66abde;fill-opacity:1;fill-rule:evenodd;stroke:none"></path></g><g id="g117" transform="matrix(.35278 0 0 -.35278 470.585 215.81)"><path id="path119" d="m0 0 11.998-20.776-5.514-.052-3.203 5.583-3.225-5.553h-2.744l-1.403 2.423 4.596 7.902-3.262 5.677z" style="fill:#3665ad;fill-opacity:1;fill-rule:evenodd;stroke:none"></path></g><g id="g121" transform="matrix(.35278 0 0 -.35278 475.494 212.58)"><path id="path123" d="M0 0h-23.994l2.712 4.795 6.436-.018-3.197 5.581 1.37 2.372h2.801l4.543-7.931 6.547-.014z" style="fill:#3665ad;fill-opacity:1;fill-rule:evenodd;stroke:none"></path></g><g id="g125" transform="matrix(.35278 0 0 -.35278 475.827 218.456)"><path id="path127" d="m0 0 11.998 20.776 2.801-4.749-3.233-5.563 6.422-.017 1.369-2.373-1.397-2.427-9.141.028L5.534.011Z" style="fill:#3665ad;fill-opacity:1;fill-rule:evenodd;stroke:none"></path></g><g id="g129" transform="matrix(.35278 0 0 -.35278 490.865 220.196)"><path id="path131" d="M0 0c-.2.252-5.045 6.169-17.739 6.169S-35.277.252-35.478 0a2.5 2.5 0 0 1-.542-1.555c0-19.426 16.087-31.822 16.772-32.34a2.5 2.5 0 0 1 3.018 0c.684.518 16.772 12.914 16.772 32.34A2.5 2.5 0 0 1 0 0" style="fill:#fff;fill-opacity:1;fill-rule:nonzero;stroke:none"></path></g><g id="g133" transform="matrix(.35278 0 0 -.35278 484.608 218.901)"><path id="path135" d="M0 0c-11.632 0-15.781-5.224-15.781-5.224C-15.781-23.63 0-35.57 0-35.57S15.781-23.63 15.781-5.224C15.781-5.224 11.632 0 0 0" style="fill:#3167ae;fill-opacity:1;fill-rule:nonzero;stroke:none"></path></g><g id="g137" transform="matrix(.35278 0 0 -.35278 484.608 220.22)"><path id="path139" d="M0 0c-8.848 0-12.004-3.973-12.004-3.973C-12.004-17.974 0-27.056 0-27.056s12.004 9.082 12.004 23.083C12.004-3.973 8.848 0 0 0" style="fill:#66abde;fill-opacity:1;fill-rule:nonzero;stroke:none"></path></g><g id="g141" transform="matrix(.35278 0 0 -.35278 480.55 221.689)"><path id="path143" d="M0 0c.099-12.255 9.667-20.736 11.503-22.25C13.339-20.734 22.907-12.243 23.006 0c-.62.649-3.915 3.664-11.503 3.664S.62.649 0 0m11.503-23.519-.302.228c-.122.093-12.202 9.395-12.202 23.482v.174l.108.137c.135.17 3.411 4.162 12.396 4.162S23.764.672 23.898.502l.109-.137V.191c0-14.087-12.08-23.389-12.202-23.482z" style="fill:#fff;fill-opacity:1;fill-rule:nonzero;stroke:none"></path></g><g id="g145" transform="matrix(.35278 0 0 -.35278 487.127 223.992)"><path id="path147" d="m0 0-.901.901-.873.873a.56.56 0 0 1-.761 0l-.901-.901L-4.309 0c-.197-.197-.14-.366.169-.366h1.042a4.086 4.086 0 0 0-4.084-4.083 4.16 4.16 0 0 0-2.9 1.182l-1.352-1.351a5.98 5.98 0 0 1 4.252-1.775c3.325 0 5.999 2.705 5.999 6.027h1.014C.112-.366.197-.197 0 0" style="fill:#fff;fill-opacity:1;fill-rule:evenodd;stroke:none"></path></g><g id="g149" transform="matrix(.35278 0 0 -.35278 483.61 224.33)"><path id="path151" d="M0 0c.197.197.141.395-.169.395h-1.042a4.086 4.086 0 0 0 4.083 4.083 4.06 4.06 0 0 0 2.873-1.212l1.38 1.381a6.08 6.08 0 0 1-4.253 1.746A6.003 6.003 0 0 1-3.126.395H-4.14c-.309 0-.366-.198-.169-.395l.873-.873.901-.902a.566.566 0 0 1 .761 0l.873.902z" style="fill:#fff;fill-opacity:1;fill-rule:evenodd;stroke:none"></path></g></g></svg>