<svg xmlns="http://www.w3.org/2000/svg" id="svg687" version="1.1" viewBox="0 0 29.993 28.373" class="mx-auto mb-6 h-32 w-auto"><defs id="defs681"><clipPath id="clipPath243" clipPathUnits="userSpaceOnUse"><path id="path241" d="m99.518 157.078 2.447-4.258-3.447-5.928 1.053-1.818h2.057l2.42 4.166 2.404-4.189 4.136.039-9.001 15.587z"></path></clipPath><clipPath id="clipPath253" clipPathUnits="userSpaceOnUse"><path id="path251" d="M0 313.233h500V0H0Z"></path></clipPath><clipPath id="clipPath289" clipPathUnits="userSpaceOnUse"><path id="path287" d="m133.401 200.311 1.556-2.707-2.192-3.768.669-1.156h1.309l1.538 2.648 1.528-2.662 2.629.025-5.722 9.907z"></path></clipPath><clipPath id="clipPath299" clipPathUnits="userSpaceOnUse"><path id="path297" d="M0 313.233h500V0H0Z"></path></clipPath><clipPath id="clipPath345" clipPathUnits="userSpaceOnUse"><path id="path343" d="M0 313.233h500V0H0Z"></path></clipPath><linearGradient id="linearGradient409" x1="0" x2="1" y1="0" y2="0" gradientTransform="matrix(12.25616 0 0 -12.25616 129.466 160.5)" gradientUnits="userSpaceOnUse" spreadMethod="pad"><stop id="stop399" offset="0" style="stop-opacity:1;stop-color:#3167ae"></stop><stop id="stop401" offset=".285" style="stop-opacity:1;stop-color:#3167ae"></stop><stop id="stop403" offset=".29" style="stop-opacity:1;stop-color:#3167ae"></stop><stop id="stop405" offset=".822" style="stop-opacity:1;stop-color:#66abde"></stop><stop id="stop407" offset="1" style="stop-opacity:1;stop-color:#66abde"></stop></linearGradient><linearGradient id="linearGradient435" x1="0" x2="1" y1="0" y2="0" gradientTransform="matrix(10.92039 0 0 -10.92039 130.872 161.278)" gradientUnits="userSpaceOnUse" spreadMethod="pad"><stop id="stop425" offset="0" style="stop-opacity:1;stop-color:#3167ae"></stop><stop id="stop427" offset=".285" style="stop-opacity:1;stop-color:#3167ae"></stop><stop id="stop429" offset=".29" style="stop-opacity:1;stop-color:#3167ae"></stop><stop id="stop431" offset=".822" style="stop-opacity:1;stop-color:#66abde"></stop><stop id="stop433" offset="1" style="stop-opacity:1;stop-color:#66abde"></stop></linearGradient></defs><g id="layer1" transform="translate(18.776 -183.117)"><g id="g229" transform="matrix(.35278 0 0 -.35278 -1.268 202.027)"><path id="path231" d="M0 0s3.731-1.702 5.183-.314v-6.343S3.037-5.743.104-7.863z" style="fill:#66abde;fill-opacity:1;fill-rule:nonzero;stroke:none"></path></g><g id="g233" transform="matrix(.35278 0 0 -.35278 -10.47 195.462)"><path id="path235" d="M0 0c-12.069 0-21.887-9.819-21.887-21.888 0-12.068 9.818-21.887 21.887-21.887s21.888 9.819 21.888 21.887C21.888-9.819 12.069 0 0 0m0-45.433c-12.982 0-23.545 10.562-23.545 23.545S-12.982 1.658 0 1.658 23.545-8.905 23.545-21.888 12.983-45.433 0-45.433" style="fill:#3665ad;fill-opacity:1;fill-rule:nonzero;stroke:none"></path></g><g id="g237" transform="matrix(.35278 0 0 -.35278 -48.847 260.006)"><g id="g239" clip-path="url(#clipPath243)"><path id="path245" d="M98.518 160.677h12.07v-15.626h-12.07z" style="fill:#4c88c7;fill-opacity:1;fill-rule:nonzero;stroke:none"></path></g></g><g id="g247" transform="matrix(.35278 0 0 -.35278 -48.847 260.006)"><g id="g249" clip-path="url(#clipPath253)"><g id="g255" transform="translate(104.836 167.099)"><path id="path257" d="m0 0-9.004-15.59-2.101 3.563 2.426 4.173-4.819.013-1.027 1.78 1.049 1.821 6.858-.022 2.464 4.25z" style="fill:#66abde;fill-opacity:1;fill-rule:evenodd;stroke:none"></path></g><g id="g259" transform="translate(105.525 154.637)"><path id="path261" d="M0 0h18.003l-2.035-3.602-4.828.014 2.397-4.179-1.028-1.779h-2.101L7-3.596l-4.912.011Z" style="fill:#66abde;fill-opacity:1;fill-rule:evenodd;stroke:none"></path></g><g id="g263" transform="translate(116.004 161.468)"><path id="path265" d="m0 0-9.001 15.587 4.136.039 2.403-4.189 2.42 4.166h2.055l1.052-1.818-3.448-5.929 2.447-4.258Z" style="fill:#66abde;fill-opacity:1;fill-rule:evenodd;stroke:none"></path></g><g id="g267" transform="translate(101.586 160.677)"><path id="path269" d="m0 0 9.001-15.587-4.136-.039-2.404 4.188-2.419-4.166h-2.058l-1.053 1.819L.379-7.857l-2.447 4.258z" style="fill:#3665ad;fill-opacity:1;fill-rule:evenodd;stroke:none"></path></g><g id="g271" transform="translate(112.027 167.544)"><path id="path273" d="M0 0h-18.002l2.035 3.598 4.829-.014-2.399 4.187 1.028 1.78h2.101L-7 3.601l4.913-.011Z" style="fill:#3665ad;fill-opacity:1;fill-rule:evenodd;stroke:none"></path></g><g id="g275" transform="translate(112.734 155.049)"><path id="path277" d="m0 0 9.001 15.587 2.102-3.563-2.426-4.173 4.818-.013 1.027-1.78-1.048-1.822-6.858.022L4.151.008Z" style="fill:#3665ad;fill-opacity:1;fill-rule:evenodd;stroke:none"></path></g><g id="g279" transform="translate(139.291 216.627)"><path id="path281" d="M0 0c-7.597 0-13.777-6.181-13.777-13.777 0-7.597 6.18-13.777 13.777-13.777s13.777 6.18 13.777 13.777S7.597 0 0 0m0-28.88c-8.328 0-15.103 6.775-15.103 15.103S-8.328 1.326 0 1.326s15.103-6.775 15.103-15.103S8.328-28.88 0-28.88" style="fill:#66abde;fill-opacity:1;fill-rule:nonzero;stroke:none"></path></g></g></g><g id="g283" transform="matrix(.35278 0 0 -.35278 -48.847 260.006)"><g id="g285" clip-path="url(#clipPath289)"><path id="path291" d="M132.765 202.598h7.672v-9.933h-7.672z" style="fill:#4c88c7;fill-opacity:1;fill-rule:nonzero;stroke:none"></path></g></g><g id="g293" transform="matrix(.35278 0 0 -.35278 -48.847 260.006)"><g id="g295" clip-path="url(#clipPath299)"><g id="g301" transform="translate(136.781 206.68)"><path id="path303" d="m0 0-5.723-9.91-1.336 2.264 1.542 2.653-3.063.009-.653 1.131.667 1.158 4.359-.014 1.566 2.701z" style="fill:#66abde;fill-opacity:1;fill-rule:evenodd;stroke:none"></path></g><g id="g305" transform="translate(137.22 198.76)"><path id="path307" d="M0 0h11.444L10.15-2.29l-3.069.009 1.524-2.656-.653-1.131H6.616L4.45-2.286l-3.123.007Z" style="fill:#66abde;fill-opacity:1;fill-rule:evenodd;stroke:none"></path></g><g id="g309" transform="translate(143.88 203.102)"><path id="path311" d="m0 0-5.722 9.908 2.63.025 1.527-2.663 1.538 2.648h1.306l.67-1.156-2.192-3.768 1.555-2.707Z" style="fill:#66abde;fill-opacity:1;fill-rule:evenodd;stroke:none"></path></g><g id="g313" transform="translate(134.716 202.598)"><path id="path315" d="m0 0 5.722-9.908-2.629-.025L1.564-7.27.026-9.918h-1.308l-.669 1.155L.241-4.994l-1.556 2.707z" style="fill:#3665ad;fill-opacity:1;fill-rule:evenodd;stroke:none"></path></g><g id="g317" transform="translate(141.352 206.964)"><path id="path319" d="M0 0h-11.443l1.294 2.287 3.069-.009-1.524 2.662.653 1.131h1.335l2.167-3.782 3.122-.007z" style="fill:#3665ad;fill-opacity:1;fill-rule:evenodd;stroke:none"></path></g><g id="g321" transform="translate(141.802 199.02)"><path id="path323" d="m0 0 5.722 9.908 1.335-2.264L5.516 4.99l3.062-.008.653-1.131-.667-1.158-4.359.014L2.639.005Z" style="fill:#3665ad;fill-opacity:1;fill-rule:evenodd;stroke:none"></path></g><g id="g325" transform="translate(155.156 175.858)"><path id="path327" d="M0 0c-7.597 0-13.777-6.181-13.777-13.777 0-7.597 6.18-13.777 13.777-13.777s13.777 6.18 13.777 13.777S7.597 0 0 0m0-28.88c-8.328 0-15.103 6.775-15.103 15.103S-8.328 1.326 0 1.326s15.103-6.775 15.103-15.103S8.328-28.88 0-28.88" style="fill:#66abde;fill-opacity:1;fill-rule:nonzero;stroke:none"></path></g></g></g><g id="g339" transform="matrix(.35278 0 0 -.35278 -48.847 260.006)"><g id="g341" clip-path="url(#clipPath345)"><g id="g347" transform="translate(152.88 165.79)"><path id="path349" d="m0 0-5.724-9.91-1.335 2.264 1.542 2.653-3.063.009-.653 1.131.667 1.158 4.359-.014 1.566 2.701z" style="fill:#66abde;fill-opacity:1;fill-rule:evenodd;stroke:none"></path></g><g id="g351" transform="translate(153.318 157.869)"><path id="path353" d="M0 0h11.443L10.15-2.29l-3.069.009 1.523-2.656-.653-1.131H6.616L4.449-2.286l-3.122.007z" style="fill:#66abde;fill-opacity:1;fill-rule:evenodd;stroke:none"></path></g><g id="g355" transform="translate(159.979 162.21)"><path id="path357" d="m0 0-5.722 9.908 2.629.025 1.528-2.663 1.538 2.648h1.306l.669-1.156-2.192-3.768 1.556-2.707Z" style="fill:#66abde;fill-opacity:1;fill-rule:evenodd;stroke:none"></path></g><g id="g359" transform="translate(150.814 161.707)"><path id="path361" d="m0 0 5.722-9.908-2.629-.025L1.565-7.27.027-9.918h-1.308l-.67 1.155L.241-4.994l-1.555 2.707z" style="fill:#3665ad;fill-opacity:1;fill-rule:evenodd;stroke:none"></path></g><g id="g363" transform="translate(158.764 166.194)"><path id="path365" d="M-1.313-.121h-11.443l1.293 2.287 3.069-.01-1.524 2.663.653 1.13h1.336l2.167-3.781 3.122-.007z" style="fill:#3665ad;fill-opacity:1;fill-rule:evenodd;stroke:none"></path></g><g id="g367" transform="translate(157.9 158.13)"><path id="path369" d="m0 0 5.722 9.908 1.336-2.264L5.516 4.99l3.063-.008.652-1.131-.666-1.158-4.359.014L2.639.005Z" style="fill:#3665ad;fill-opacity:1;fill-rule:evenodd;stroke:none"></path></g><g id="g371" transform="translate(126.118 184.799)"><path id="path373" d="m0 0 .005.007c-.052.039-.104.069-.156.105C-.178.131-.2.151-.228.169L-.229.166c-2.27 1.523-4.556.05-4.556.05C-7.133-1.875-11.92-1.37-11.92-1.37l8.377-3.372.036.049-.035-.053 5.944-6.797S.348-7.19 1.549-4.284c0 0 .638 2.644-1.549 4.284" style="fill:#3167ae;fill-opacity:1;fill-rule:nonzero;stroke:none"></path></g><g id="g375" transform="translate(128.475 187.901)"><path id="path377" d="m0 0-.003-.003c.029-.023.059-.04.088-.061l.043-.033.001.002C1.412-.975 2.72-.15 2.72-.15c1.347 1.177 4.067.862 4.067.862L2.042 2.678l-.021-.028.02.03-3.342 3.899s1.144-2.487.444-4.133c0 0-.377-1.501.857-2.446" style="fill:#66abde;fill-opacity:1;fill-rule:nonzero;stroke:none"></path></g><g id="g379" transform="translate(136.915 160.605)"><path id="path381" d="M0 0h-.004c0-.038.005-.071.007-.107l.001-.054h.003c.118-1.55 1.58-2.053 1.58-2.053 1.761-.313 3.22-2.631 3.22-2.631L3.366.085 3.332.084l.036.003.945 5.049S3.091 2.686 1.37 2.2c0 0-1.407-.646-1.37-2.2" style="fill:#66abde;fill-opacity:1;fill-rule:nonzero;stroke:none"></path></g><g id="g383" transform="translate(137.69 160.167)"><path id="path385" d="M0 0h.008C.012.065.007.125.009.188c0 .033.004.062.004.095H.009C.002 3.016-2.498 4.087-2.498 4.087c-3.047.776-5.306 5.027-5.306 5.027l1.891-8.83.06-.003h-.063l-2.308-8.73S-5.765-4.31-2.685-3.68c0 0 2.549.951 2.685 3.68" style="fill:#3167ae;fill-opacity:1;fill-rule:nonzero;stroke:none"></path></g></g></g><g id="g387" transform="matrix(.35278 0 0 -.35278 -48.847 260.006)"><g id="g389"><g id="g395"><g id="g397"><path id="path411" d="m131.777 160.451.061-.003h-.063l-2.309-8.73s2.46 4.139 5.54 4.769c0 0 .582.22 1.204.745 1.824.896 3.187.657 3.659.522 1.086-.79 1.853-1.994 1.853-1.994l-1.441 4.93h-.034l.035.002.946 5.049s-.449-.895-1.183-1.711c-1.09-1.029-3.448-.338-4.564.075-.174.099-.288.15-.288.15-3.048.775-5.307 5.026-5.307 5.026z" style="fill:url(#linearGradient409);stroke:none"></path></g></g></g></g><g id="g413" transform="matrix(.35278 0 0 -.35278 -48.847 260.006)"><g id="g415"><g id="g421"><g id="g423"><path id="path437" d="m131.917 157.596-.897-4.269s5.451 6.682 10.772 1.721l-1.036 11.591s-2.704-6.957-9.884 2.591z" style="fill:url(#linearGradient435);stroke:none"></path></g></g></g></g></g></svg>